<svg width="552" height="127" viewBox="0 0 552 127" fill="none" xmlns="http://www.w3.org/2000/svg">
<path d="M22.4467 13.296L11.5693 61.9974L2.88665 100.869L1.80799 105.697C0.970657 109.449 3.49732 113.123 7.30132 113.68L14.2907 114.704C21.5347 113.552 29.58 111.807 38.144 109.191C72.0147 98.8427 85.024 69.2934 85.024 69.2934C78.3066 93.7547 67.044 109.939 54.3387 120.575L81.444 124.549L96.7547 126.793L97.4227 126.892C101.259 127.455 104.752 124.611 104.98 120.74L106.924 87.8773L110.576 26.1334C110.741 23.3414 109.128 20.8493 106.693 19.7453L104.823 19.184L32.0267 8.51203L29.8587 8.19469C29.5347 8.14669 29.212 8.12401 28.8933 8.12401C25.844 8.12401 23.1293 10.236 22.4467 13.296Z" fill="url(#paint0_linear_2_2)"/>
<path d="M33.656 4.25198L32.0267 8.51199L104.823 19.184L41.728 0.27998C41.0973 0.0906462 40.4587 -9.02907e-06 39.8293 -9.02907e-06C37.1547 -9.02907e-06 34.6573 1.63332 33.656 4.25198Z" fill="url(#paint1_linear_2_2)"/>
<path d="M106.693 19.7453C106.141 19.4947 105.561 19.2933 104.935 19.2013L104.823 19.184L106.693 19.7453Z" fill="url(#paint2_linear_2_2)"/>
<path d="M13.356 19.2507C9.89466 19.2507 7.02 21.92 6.76266 25.372L0 116.368C10.2173 115.62 23.4147 113.691 38.144 109.191C72.0147 98.8427 85.024 69.2934 85.024 69.2934C76.8093 99.208 61.7947 116.745 45.6613 126.892H97.4227C101.299 126.892 104.344 123.571 104.008 119.709L95.8227 25.2907C95.5253 21.8733 92.6667 19.2507 89.2347 19.2507H13.356Z" fill="url(#paint3_linear_2_2)"/>
<path d="M74.6947 29.4454V55.4733C74.6947 68.0533 64.46 78.288 51.88 78.288C39.3013 78.288 29.0667 68.0533 29.0667 55.4733V29.4454H25.7333V55.4733C25.7333 69.892 37.464 81.62 51.88 81.62C66.2987 81.62 78.0267 69.892 78.0267 55.4733V29.4454H74.6947Z" fill="url(#paint4_linear_2_2)"/>
<path d="M21.0107 33.9147C21.0107 37.444 23.872 40.304 27.4 40.304C30.9293 40.304 33.7907 37.444 33.7907 33.9147C33.7907 30.3853 30.9293 27.524 27.4 27.524C23.872 27.524 21.0107 30.3853 21.0107 33.9147Z" fill="url(#paint5_linear_2_2)"/>
<path d="M69.972 33.9147C69.972 37.444 72.8307 40.304 76.3613 40.304C79.8893 40.304 82.752 37.444 82.752 33.9147C82.752 30.3853 79.8893 27.524 76.3613 27.524C72.8307 27.524 69.972 30.3853 69.972 33.9147Z" fill="url(#paint6_linear_2_2)"/>
<line x1="127" y1="107.5" x2="552" y2="107.5" stroke="#A0C30A" stroke-width="3"/>
<path d="M171.76 97H158.88L147.76 75.88H139.76V97H128.64V52.28C128.64 48.0133 129.627 44.92 131.6 43C133.573 41.0267 136.88 40.04 141.52 40.04H150.96C156.613 40.04 161.093 41.7733 164.4 45.24C167.76 48.6533 169.44 53 169.44 58.28C169.44 62.12 168.427 65.4533 166.4 68.28C164.427 71.0533 161.973 72.9733 159.04 74.04L171.76 97ZM150.24 66.6C152.587 66.6 154.507 65.8 156 64.2C157.547 62.5467 158.32 60.52 158.32 58.12C158.32 55.6667 157.573 53.6933 156.08 52.2C154.64 50.7067 152.693 49.96 150.24 49.96H144.72C141.413 49.96 139.76 51.64 139.76 55V66.6H150.24ZM211.624 97H204.664L201.464 91.48L190.344 97.48C184.157 97.48 179.997 95.24 177.864 90.76C176.797 88.5733 176.05 86.2267 175.624 83.72C175.25 81.16 175.064 78.52 175.064 75.8C175.064 73.0267 175.09 71 175.144 69.72C175.197 68.3867 175.33 66.8667 175.544 65.16C175.757 63.4 176.05 61.9333 176.424 60.76C176.85 59.5867 177.437 58.3867 178.184 57.16C178.93 55.88 179.837 54.8667 180.904 54.12C183.304 52.4667 186.424 51.64 190.264 51.64H201.224L211.624 51V97ZM201.224 82.44V61H193.304C190.37 61 188.317 62.12 187.144 64.36C186.024 66.6 185.464 69.96 185.464 74.44C185.464 78.8667 185.997 81.9867 187.064 83.8C188.184 85.6133 190.264 86.52 193.304 86.52L201.224 82.44ZM242.438 97.08L233.398 97C229.398 97 226.358 95.8267 224.278 93.48C222.251 91.1333 221.238 88.3333 221.238 85.08V36.84H231.638V57L244.038 51.24C248.785 51.24 252.278 52.52 254.518 55.08C256.491 57.3733 257.718 61.08 258.198 66.2C258.358 68.3333 258.438 70.9733 258.438 74.12C258.438 89.4267 253.105 97.08 242.438 97.08ZM234.278 88.12H239.398C245.158 88.12 248.038 83.4533 248.038 74.12C248.038 69.3733 247.585 66.0667 246.678 64.2C245.825 62.3333 243.931 61.4 240.998 61.4L231.638 66.44V84.44C231.638 86.5733 232.518 87.8 234.278 88.12ZM299.124 97H292.164L288.964 91.48L277.844 97.48C271.657 97.48 267.497 95.24 265.364 90.76C264.297 88.5733 263.55 86.2267 263.124 83.72C262.75 81.16 262.564 78.52 262.564 75.8C262.564 73.0267 262.59 71 262.644 69.72C262.697 68.3867 262.83 66.8667 263.044 65.16C263.257 63.4 263.55 61.9333 263.924 60.76C264.35 59.5867 264.937 58.3867 265.684 57.16C266.43 55.88 267.337 54.8667 268.404 54.12C270.804 52.4667 273.924 51.64 277.764 51.64H288.724L299.124 51V97ZM288.724 82.44V61H280.804C277.87 61 275.817 62.12 274.644 64.36C273.524 66.6 272.964 69.96 272.964 74.44C272.964 78.8667 273.497 81.9867 274.564 83.8C275.684 85.6133 277.764 86.52 280.804 86.52L288.724 82.44ZM329.938 97H323.458C319.511 97 316.498 95.8267 314.418 93.48C312.391 91.1333 311.378 88.3333 311.378 85.08V61.08H306.978V53.16H311.378V44.2H321.778V53.16H329.138V61.08H321.778V84.44C321.778 86.9467 322.978 88.2 325.378 88.2H329.938V97ZM363.263 76.36V72.2C363.263 68.2533 362.676 65.24 361.503 63.16C360.383 61.08 358.01 60.04 354.383 60.04C348.516 60.04 345.583 63.9867 345.583 71.88V76.04C345.583 84.52 348.516 88.76 354.383 88.76C358.17 88.76 360.65 87.3467 361.823 84.52C362.783 82.28 363.263 79.56 363.263 76.36ZM373.663 73.96C373.663 83.8267 371.796 90.44 368.063 93.8C364.916 96.68 360.356 98.12 354.383 98.12C346.756 98.12 341.61 95.88 338.943 91.4C336.436 87.2933 335.183 81.48 335.183 73.96C335.183 66.92 336.436 61.4 338.943 57.4C341.716 52.92 346.756 50.68 354.063 50.68C361.423 50.68 366.516 52.6533 369.343 56.6C372.223 60.4933 373.663 66.28 373.663 73.96ZM436.541 51.32L423.821 97H415.261L406.541 69.24L397.821 97H389.261L376.461 51.32H387.501L394.221 81.08L401.181 56.6C401.981 53.08 403.794 51.32 406.621 51.32C407.954 51.32 409.021 51.7467 409.821 52.6C410.621 53.4533 411.287 54.7867 411.821 56.6L418.861 81.08L425.581 51.32H436.541ZM478.124 97H467.724V67.8C467.724 65.1867 467.19 63.4 466.124 62.44C465.057 61.48 463.564 61 461.644 61L452.284 64.92V97H441.884V51.32H449.644L452.044 56.76L464.844 50.84C468.417 50.84 471.51 52.1733 474.124 54.84C476.79 57.4533 478.124 61.2933 478.124 66.36V97ZM493.823 33.88C496.33 33.88 497.956 34.28 498.703 35.08C499.45 35.8267 499.823 37.4533 499.823 39.96C499.823 42.4133 499.423 44.04 498.623 44.84C497.876 45.5867 496.25 45.96 493.743 45.96C491.29 45.96 489.663 45.56 488.863 44.76C488.116 43.96 487.743 42.3333 487.743 39.88C487.743 37.4267 488.116 35.8267 488.863 35.08C489.663 34.28 491.316 33.88 493.823 33.88ZM498.943 97H488.543V53H498.943V97ZM549.854 97H537.374L525.374 80.84L520.814 87.32V97H510.414V36.84H520.814V74.84L535.374 53.16H547.134L532.174 73.64L549.854 97Z" fill="#153A3E"/>
<defs>
<linearGradient id="paint0_linear_2_2" x1="16.3714" y1="8.34042" x2="105.572" y2="138.757" gradientUnits="userSpaceOnUse">
<stop stop-color="#10545C"/>
<stop offset="1" stop-color="#1C1C1B"/>
</linearGradient>
<linearGradient id="paint1_linear_2_2" x1="25.3281" y1="9.59243" x2="129.635" y2="9.59243" gradientUnits="userSpaceOnUse">
<stop stop-color="#ACCD10"/>
<stop offset="0.99959" stop-color="#779F00"/>
<stop offset="1" stop-color="#779F00"/>
</linearGradient>
<linearGradient id="paint2_linear_2_2" x1="74.0397" y1="-26.9072" x2="159.761" y2="98.4257" gradientUnits="userSpaceOnUse">
<stop stop-color="#10545C"/>
<stop offset="1" stop-color="#1C1C1B"/>
</linearGradient>
<linearGradient id="paint3_linear_2_2" x1="36.6593" y1="19.8811" x2="64.1495" y2="144.03" gradientUnits="userSpaceOnUse">
<stop stop-color="#ACCD10"/>
<stop offset="0.99959" stop-color="#779F00"/>
<stop offset="1" stop-color="#779F00"/>
</linearGradient>
<linearGradient id="paint4_linear_2_2" x1="51.8807" y1="11.7098" x2="51.8807" y2="225.893" gradientUnits="userSpaceOnUse">
<stop stop-color="#10545C"/>
<stop offset="1" stop-color="#1C1C1B"/>
</linearGradient>
<linearGradient id="paint5_linear_2_2" x1="27.4002" y1="11.7098" x2="27.4002" y2="225.894" gradientUnits="userSpaceOnUse">
<stop stop-color="#10545C"/>
<stop offset="1" stop-color="#1C1C1B"/>
</linearGradient>
<linearGradient id="paint6_linear_2_2" x1="76.3611" y1="11.7098" x2="76.3611" y2="225.894" gradientUnits="userSpaceOnUse">
<stop stop-color="#10545C"/>
<stop offset="1" stop-color="#1C1C1B"/>
</linearGradient>
</defs>
</svg>
